# xmcd
#
# Track frame offsets: 
#        150
#        21241
#        40036
#        61418
#        104901
#        122276
#        149984
#        167034
#        186099
#        206558
#        222018
#        240350
#        265498
#        284732
#        318069
#
# Disc length: 4524 seconds
#
# Revision: 0
# Processed by: cddbd v1.5.2PL0 Copyright (c) Steve Scherf et al.
# Submitted via: ExactAudioCopy v0.99pb5
#
DISCID=e511aa0f
DTITLE=Blues Traveler - The Definitive Collection [CD1of2)
DYEAR=2014
DGENRE=Blues-Rock
TTITLE0=Run-around
TTITLE1=But anyway
TTITLE2=Carolina blues
TTITLE3=Crystal flame
TTITLE4=Gotta get mean
TTITLE5=Onslaught
TTITLE6=What's for brakfast
TTITLE7=I have my moments
TTITLE8=Canadian rose
TTITLE9=Crash burn
TTITLE10=Gina
TTITLE11=Just wait
TTITLE12=Love and greed
TTITLE13=Make my way
TTITLE14=Regarding Steven
EXTD=
EXTT0=
EXTT1=
EXTT2=
EXTT3=
EXTT4=
EXTT5=
EXTT6=
EXTT7=
EXTT8=
EXTT9=
EXTT10=
EXTT11=
EXTT12=
EXTT13=
EXTT14=
PLAYORDER=
